<svg width="14" height="14" viewBox="0 0 654 654" fill="none" xmlns="http://www.w3.org/2000/svg">
    <circle cx="327" cy="327" r="327" fill="#0C284D"/>
    <path d="M207 87C191 125 201.5 166.5 240.5 173.5L256.5 176L303 115.5C313 85 264 57 260.5 17.5C252.5 40 215.547 66.7008 207 87Z" fill="#01061E"/>
    <path d="M369.5 106C339 91.5 318 93 301.5 94.5L243 174C246.5 179.5 250.5 194.6 238.5 211C223.5 231.5 225.5 251.5 226 259.5C226.5 267.5 233.5 293 232 322.5C230.5 352 223 382.5 243.5 425C264 467.5 303 483.5 310.5 485.5C318 487.5 323 494.5 332.5 498.5C342 502.5 369.5 518.5 394.5 537C419.5 555.5 435.5 549.5 438.5 548C441.5 546.5 444 546.5 448.5 548C453 549.5 505 546 523 546.5C541 547 544.5 544.5 553.5 536C562.5 527.5 553 507 552.5 503.5C552 500 560 493 562 491C564 489 563.5 487 560 479.5C556.5 472 554 467.5 549 467C548 462 551 462 550 459.5C550.5 457.5 580 448.5 614 356C641.2 282 650.5 184.5 643 154C626 209 597.064 254 591.5 263C574.5 290.5 540 321.5 537 321.5C534 321.5 505.5 313.5 493.5 301.5C481.5 289.5 470.5 253 464.5 239C474.5 225.5 472.5 210 470.5 200.5C468.5 191 462.5 186 464.5 180.5C466.5 175 490 178.5 499 178.5C533.5 178.5 546 150.5 548 134C550 117.5 540 89.5 539.5 69C539 48.5 537 33 525 9C525 25 513.5 45.5 509 55C504.5 64.5 478.5 94.5 470 100C461.5 105.5 445.5 121 443.5 124C441.5 127 438.5 130.5 436 131C433.5 131.5 425.5 138.5 419 137.5C412.5 136.5 400 120.5 369.5 106Z" fill="#01061E"/>
    <path d="M442 140.5C441 123 466 106.5 473 102.5C472.5 106.167 471.3 114.6 470.5 119C469.5 124.5 470.5 126.5 472 124.5C473.5 122.5 476 99 490 86C504 73 522.5 41 526 21.5C531.5 31.5 535.5 55 536 70C536.5 85 554.5 133.5 536 157.5C517.5 181.5 480.5 175.5 477.5 175.5C474.5 175.5 474 174 479.5 173C507.5 166 515.5 153 522 145.5C528.5 138 525.5 116.5 525.5 110.5C525.5 104.5 532.5 89.5 532.5 71C530.5 73 519 82.5 511 88C503 93.5 497.5 102.5 495 129C492.5 155.5 474 167.5 465.5 173C457 178.5 456.5 174 450.5 169C444.5 164 443 158 442 140.5Z" fill="#FFFBFF"/>
    <path d="M436.5 135C436 132 431.5 137 422.5 141C425 170 465.5 201.5 467 202C468.5 202.5 463 189.5 459 184.5C455 179.5 441 165.5 436.5 159.5C432 153.5 437 138 436.5 135Z" fill="#FFFBFF"/>
    <path d="M302 96.5C316 94.5 344 93.5 382 114.5C400 124.5 413 136 414.5 137.5C417 140.5 381.5 125.5 347.5 129.5C329 131 309 147.5 308 148C307 148.5 301.5 137 299 134C298 132.5 308 118.5 317.5 110C307.308 114.17 300.979 119.198 300.104 121.902C300.038 122.591 300 122.838 300 122.5C300 122.316 300.035 122.117 300.104 121.902C300.431 118.511 301.446 104.396 302 96.5Z" fill="#FFFBFF"/>
    <path d="M288 148.5C286.5 149.5 282 161 279.5 168.5C278.819 170.5 279.5 174 286 168.5C292.5 163 289.5 147.5 288 148.5Z" fill="#FFFBFF"/>
    <path d="M289.5 172.5C269 196.5 257 183.5 250 177.5C248.5 177 246.2 176.9 249 180.5C251.8 184.1 249.5 193 248 197H255.5C273.5 196.5 293.5 189 300.5 170.5C307.5 152 296 137 293.5 140.5C291 144 299.5 160.793 289.5 172.5Z" fill="#FFFBFF"/>
    <path d="M396 138C336.5 130 324.5 141.5 309 154.5C311.5 183 283 198.5 271.5 203C260 207.5 244.5 204.5 235 221.5C225.5 238.5 226.5 258.5 234 287.5C241.5 316.5 228.5 343 231.5 372.5C237 441.5 292.5 478 310.5 482.5C305.5 478.5 283 461.5 264.5 435.5C284.333 454 327.4 492.1 341 496.5C329.5 483 303 458 297.5 441C311 447.5 343 490.5 362 506.5C362.333 503.667 360.4 494 350 478C355.5 482.5 361 490 365 496.5C386.5 527 394.5 542.5 421 545.5C394.5 539 392 527 387 515C382 503 391.5 485 393 479.5C394.5 474 395 449.5 421 445.5C447 441.5 457 453.5 471 466C485 478.5 508.5 483.5 529 481C549.5 478.5 549 469.5 546.5 471.5C535 478.5 504.5 475 488.5 467C539.5 477 548 463 546.5 462.5C545 462 510.5 465.5 478 439C445.5 412.5 409 425 401 431.5C393 438 387.5 438 390.5 435.5C422 408.5 459.5 416 482 437C464.5 417 464.5 386.5 466.5 371C468.5 355.5 482 341.5 481 341C456 335 441 348 431 350.5C421 353 414 352 420 344C433.5 324 470.5 294 490.5 300.5C485.167 292 472.9 270.8 466.5 254C458.5 233 453 215.5 425 191C397 166.5 353.5 177 348 182C342.5 187 329 215.5 307.5 233.5C286 251.5 267.5 267 249 303.5C253.5 285.5 261.5 264 279.5 249.5C310.5 223.5 325 203.5 335.5 187C346 170.5 362 171.5 392.5 170.5C423 169.5 463.5 221.5 465.5 232C467.167 226 469.9 213.2 467.5 210C464.5 206 446.5 195 434.5 178.5C422.5 162 405.5 157 372 157C338.5 157 333.5 166 329 176C321.5 192 297 218 273.5 235C250 252 245 270.5 245.5 291C243.5 286.667 240.9 274.1 246.5 258.5C254.5 238.5 284.714 221.5 309 196C329 175 328 161 338.5 158C378 144 412.5 154.5 426.5 163C418 156.5 421.5 145 419.5 144C409 143 404 139.076 396 138Z" fill="#FFFBFF"/>
    <path d="M499.5 349.5C571 313 609 253.5 643 168C639.5 330 579 422 571 433C563 444 537.5 449 517 433C474.5 397 478 359 499.5 349.5Z" fill="white"/>
    <path d="M489 305.5C475.5 299.5 451.5 318 427 342.5C426.333 343.167 425.1 344.9 425.5 346.5C426 348.5 436 342 449 336.5C462 331 477.5 335.5 492 334C506.5 332.5 527.5 327 532.5 322.5C527 322.5 502.5 311.5 489 305.5Z" fill="#FFFBFF"/>
    <path d="M472 382.5C474 340 496 337 509.5 336C509.5 337 504 339.5 493 345.5C482 351.5 470.5 385 489.5 415.5C508.5 446 546.5 451.5 559.5 448C557.333 450.5 552.1 455.6 548.5 456C504.5 458.5 470 425 472 382.5Z" fill="white"/>
    <path d="M411 454.5C401 459.5 400 467.5 396 484.5C390.5 501 389 518.5 406.5 535.5C424 552.5 452 537.5 457 535.5C462 533.5 502.5 524.5 523.5 532.5C544.5 540.5 549.5 536 552.5 533C555.5 530 551.5 507.5 549.5 507C547.5 506.5 542.5 513.5 532 515.5C531 515.5 543.5 508 546 504.5C548.5 501 558.5 491.5 560 489C561.5 486.5 554.5 472 552 471C549.5 470 550 477 543.5 481.5C537 486 528 489 499.5 486C471 483 459 459.5 449.5 453C440 446.5 421 449.5 411 454.5Z" fill="white"/>
    <path d="M526.5 539.5C502.5 529.5 470 539.5 448.5 545C450.667 545.5 455.8 546.2 459 545C475 540 523 542.5 530.5 543.5C538 544.5 534.5 542.5 526.5 539.5Z" fill="white"/>
    <path d="M415.5 469.5C406.5 470 406 477.5 404 491.5C405 508 415.5 509.5 421 509.5C426.5 509.5 428.5 509 432.5 515C436.5 521 444.5 521 450.5 518.5C456.5 516 454 499.5 450.5 488.5C447 477.5 424.5 469 415.5 469.5Z" fill="#01061E"/>
    <path d="M434 455.5C444.5 455 450 460 464 476C478 492 496.5 500.5 518 498.5C535.018 496.917 541.366 495.53 542.467 495.016C542.478 495.011 542.489 495.005 542.5 495C542.489 495.005 542.478 495.011 542.467 495.016C527.949 502.014 494.981 510.981 470 486.5C462.347 479 451.5 463.5 434 455.5Z" fill="#01061E"/>
    <path d="M462 497C462.038 497.221 462.08 497.439 462.124 497.656C462.745 499.499 465.861 503.133 475 507C487.877 512.448 506.152 509.065 520.103 513.375C520.273 513.417 520.405 513.459 520.5 513.5C520.368 513.458 520.236 513.416 520.103 513.375C518.182 512.898 511.298 512.398 495.5 513.5C474.412 514.971 464.388 508.746 462.124 497.656C462.038 497.402 462 497.182 462 497Z" fill="#01061E"/>
    <path d="M309 324C323 299 369.5 295 369.5 348C366.5 335 352.5 287.5 309 324Z" fill="#01061E"/>
    <path d="M343 327C330.5 319.5 323.5 324 312 331C333.5 324.5 339 329.5 347 337.5C345 336.167 339.7 333.4 334.5 333C328 332.5 304 339 301.5 341C299 343 309 347 314.5 343.5C327.5 334.5 341.5 337 345.5 339.5C349.5 342 356.5 353.5 359 355C361.5 356.5 358 357 356.5 357C355 357 345 348 336.5 345C328 342 324 347 310.5 347C314 347.5 314 350.5 318.5 354.5C337 371 348 362.5 349.5 360C351 357.5 354 361 356.5 363C359 365 367.5 366 364 362.5C360.5 359 355.5 334.5 343 327Z" fill="#01061E"/>
    <path d="M308.5 351C314.5 371 337.5 387.5 351.5 363C335.5 374 319.5 370 308.5 351Z" fill="#01061E"/>
    <path d="M297 349.5C303.5 390 340 411 357 366C341 385.5 320 400.5 297 349.5Z" fill="#01061E"/>
    <path d="M283.5 370C297.5 415 330 432.5 355 414C326.5 419 308 408.5 283.5 370Z" fill="#01061E"/>
    <path d="M272.5 497C149 396.5 180 237 230 179C231.667 179 234 180.4 230 186C208.5 220 205 285 210.5 302C216 319 209 337 214.5 375.5C223.5 439.5 223.5 427 272.5 497Z" fill="#88B9D7"/>
    <path d="M138.5 380.5C126.5 322.5 132 237.5 210.5 168C211.833 166.833 213.9 165.6 211.5 170C208.5 175.5 176.5 246 168.5 313C159 413 221 485 288.5 536C289.5 539 219.5 505 187.5 456.5C193.5 484 224 521.5 283.5 566.5C176 545 150.5 438.5 138.5 380.5Z" fill="#88B9D7"/>
    <path d="M90 329C99.5 258 124 218 187.5 168C190.5 171.5 161.5 192 142 216.5C103.494 264.879 95 380.5 110 452.5C100.167 435 82.4 385.8 90 329Z" fill="#88B9D7"/>
    <path d="M259.5 56C254.5 44.5 255.627 32.061 257.5 30.5C260.5 28 266 44.5 268.5 49.5C271 54.5 289 76.5 295.5 91C302 105.5 297 120.5 291 135C285 149.5 275.5 154.5 274 154C272.5 153.5 282 134.5 285 127.5C288 120.5 290 110.5 283 94C276 77.5 264.5 67.5 259.5 56Z" fill="white"/>
    <path d="M210 85C214 77 246.5 41.5 252 36C252.856 35.127 252.893 35.85 252.998 37.9606L253 38C254.5 68 250.5 86 246.5 94C242.5 102 221 120 222.5 137.5C224 155 240.5 162 248.5 164.5C256.5 167 254 169.5 251.5 171.5C249 173.5 232 172 220.5 163.5C189 139 206 93 210 85Z" fill="white"/>
    <path d="M300.405 316.679C293.905 302.679 289.905 282.679 290.905 265.179C291.405 253.679 262.905 291.179 259.405 296.679C255.905 302.179 242.405 319.679 238.905 345.679C232.905 396.679 258.405 429.679 266.405 438.179C274.405 446.679 286.405 456.679 297.905 466.679C309.405 476.679 310.5 470 317.5 470.5C313.5 464.5 305 457 297.905 441.5C303.905 447.5 316.505 459.879 322.905 466.679C330.905 475.179 341.405 490.679 361.905 506.679C363.5 503 357 489 352 481C350.675 478.88 348.5 476 353.905 482.179C353.905 478.179 352.905 477.679 347.405 469.679C350.405 471.679 358.205 477.779 365.405 486.179C374.405 496.679 381.905 517.679 392.405 529.179C386.905 522.179 384.5 504 387 500C391.5 491.5 395.405 463.179 399.405 457.679C403.405 452.179 402.905 449.679 400.905 448.679C398.905 447.679 391.905 449.679 382.905 459.179C382.905 453.679 393.405 444.679 395.405 443.179C397.405 441.679 397.405 438.179 395.405 437.679C393.405 437.179 384.905 442.179 388.905 434.179C398.905 398.179 449.905 410.179 483.405 438.179C455 403.5 468.095 357.821 481.5 341C468 337.5 455.5 339.327 443.905 344.679C437.405 347.679 420.688 355.795 418.5 348.5C417 343.5 451 315.5 462 307.5C473 299.5 486.405 300.179 483.405 299.179C480.405 298.179 456.905 268.179 453.905 289.679C450.905 311.179 406.905 345.679 391.905 351.179C396.905 344.179 396.405 343.679 399.905 327.679C396.405 335.179 384.405 352.679 374.905 364.679C365.405 376.679 353.405 406.179 341.905 409.179C330.405 412.179 330.405 411.679 339.905 413.179C349.405 414.679 358.905 411.179 358.405 411.679C357.905 412.179 353.905 426.179 323.905 422.179C293.905 418.179 281.405 372.179 279.405 367.179C277.405 362.179 284.405 359.679 288.405 367.179V347.679C289.405 337.179 306.905 330.679 300.405 316.679Z" fill="#88B9D7"/>
    <path d="M463 131.5C456.5 138.5 447 154.5 446 163.5C446.525 164.812 451.522 172.753 457 175C461.957 177.033 467.035 174.001 474.5 164.5C491 143.5 479 115 476 110.5C472.5 118.5 474.5 120 471 124.5C471.5 122.833 470.5 123.4 470.5 119C470.167 120.833 468.2 125.9 463 131.5Z" fill="#88B9D7"/>
    <path d="M317.5 110C313 109.167 303.4 107.8 301 109C300.333 113.167 299.2 121.7 300 122.5C301 123.5 302.5 118.5 304 117.5C305.2 116.7 313.5 112.167 317.5 110Z" fill="#88B9D7"/>
</svg>
